# Blender 3.6.0
# www.blender.org
mtllib bossArm.mtl
o Cube
v -2.164121 20.813936 -11.000893
v 11.000895 -11.000893 -11.000893
v -2.164121 20.813936 11.000893
v 11.000893 -11.000892 11.000893
v -42.817570 11.000892 -11.000893
v -42.817570 -11.000893 -11.000893
v -42.817570 11.000892 11.000893
v -42.817570 -11.000893 11.000893
v -45.228260 -13.411582 0.000000
v -12.800600 -13.411580 -13.411580
v 0.253267 0.000000 -13.411582
v -45.228260 -0.000000 13.411582
v 0.253267 0.000000 13.411582
v -45.228260 -0.000000 -13.411582
v -13.165012 23.224625 13.411582
v 0.246568 28.541054 0.000000
v -12.800600 -13.411580 13.411580
v -45.228260 13.411580 0.000000
v -13.165012 23.224625 -13.411582
v 13.411580 -13.411580 0.000000
v -25.965612 33.449051 0.000000
v 0.000000 0.000000 18.470634
v -50.287312 0.000000 0.000000
v -12.800600 -18.470634 0.000000
v -8.468076 0.000000 0.000000
v 0.000000 0.000000 -18.470634
v 25.749348 5.500446 -18.324594
v -41.283325 5.500446 18.324594
v 25.749348 5.500446 18.324594
v -41.283325 5.500446 -18.324594
v 2.739591 6.705791 22.059467
v -47.757790 6.705790 0.000000
v 28.642487 6.705790 0.000000
v 2.739591 6.705791 -22.059467
v 18.368359 -5.500446 -12.206238
v -44.022911 -5.500446 12.206238
v 18.368359 -5.500446 12.206238
v -44.022911 -5.500446 -12.206238
v 0.000000 -6.705790 15.941108
v -47.757790 -6.705791 0.000000
v 24.434238 -6.705790 0.000000
v 0.000000 -6.705790 -15.941108
vn 0.1969 0.8280 -0.5251
vn -0.4546 0.6432 -0.6162
vn -0.4546 0.6432 0.6162
vn 0.1969 0.8280 0.5251
vn 0.3891 0.3122 0.8667
vn 0.2017 0.6467 0.7356
vn -0.1611 0.4927 0.8552
vn -0.0976 -0.3000 0.9489
vn -0.8960 -0.3059 0.3220
vn -0.9147 0.2601 0.3092
vn -0.9147 0.2601 -0.3092
vn -0.8960 -0.3059 -0.3220
vn -0.1247 -0.9453 -0.3015
vn 0.1550 -0.9403 -0.3030
vn 0.1550 -0.9403 0.3030
vn -0.1247 -0.9453 0.3015
vn 0.2306 0.9706 0.0696
vn 0.4884 0.8062 -0.3339
vn 0.4884 0.8062 0.3339
vn 0.2306 0.9706 -0.0696
vn -0.0976 -0.3000 -0.9489
vn -0.1611 0.4927 -0.8552
vn 0.2017 0.6467 -0.7356
vn 0.3891 0.3122 -0.8667
vn 0.1745 -0.8018 -0.5716
vn -0.0752 -0.5419 -0.8371
vn 0.1964 -0.9778 -0.0732
vn 0.1964 -0.9778 0.0732
vn -0.8819 0.3337 -0.3332
vn -0.8819 0.3337 0.3332
vn -0.0752 -0.5419 0.8371
vn 0.1745 -0.8018 0.5716
vn 0.1666 -0.5298 -0.8316
vn -0.0911 -0.2112 -0.9732
vn 0.5112 -0.8010 0.3115
vn 0.5112 -0.8010 -0.3115
vn -0.9074 -0.3061 -0.2880
vn -0.9074 -0.3061 0.2880
vn -0.0911 -0.2112 0.9732
vn 0.1666 -0.5298 0.8316
vt 0.625000 0.500000
vt 0.750000 0.500000
vt 0.750000 0.625000
vt 0.625000 0.625000
vt 0.875000 0.500000
vt 0.875000 0.625000
vt 0.875000 0.750000
vt 0.750000 0.750000
vt 0.625000 0.750000
vt 0.437500 0.750000
vt 0.500000 0.750000
vt 0.500000 0.875000
vt 0.437500 0.875000
vt 0.562500 0.750000
vt 0.625000 0.875000
vt 0.562500 0.875000
vt 0.625000 1.000000
vt 0.562500 1.000000
vt 0.500000 1.000000
vt 0.437500 1.000000
vt 0.437500 0.000000
vt 0.500000 0.000000
vt 0.500000 0.125000
vt 0.437500 0.125000
vt 0.562500 0.000000
vt 0.625000 0.000000
vt 0.625000 0.125000
vt 0.562500 0.125000
vt 0.625000 0.250000
vt 0.562500 0.250000
vt 0.500000 0.250000
vt 0.437500 0.250000
vt 0.125000 0.500000
vt 0.250000 0.500000
vt 0.250000 0.625000
vt 0.125000 0.625000
vt 0.375000 0.500000
vt 0.375000 0.625000
vt 0.375000 0.750000
vt 0.250000 0.750000
vt 0.125000 0.750000
vt 0.437500 0.500000
vt 0.500000 0.500000
vt 0.500000 0.625000
vt 0.437500 0.625000
vt 0.562500 0.500000
vt 0.562500 0.625000
vt 0.500000 0.375000
vt 0.437500 0.375000
vt 0.625000 0.375000
vt 0.562500 0.375000
vt 0.375000 0.375000
vt 0.375000 0.250000
vt 0.375000 0.125000
vt 0.375000 0.000000
vt 0.375000 0.875000
vt 0.375000 1.000000
s 0
usemtl Material
f 1/1/1 19/2/1 21/3/1 16/4/1
f 19/2/2 5/5/2 18/6/2 21/3/2
f 21/3/3 18/6/3 7/7/3 15/8/3
f 16/4/4 21/3/4 15/8/4 3/9/4
f 37/10/5 13/11/5 22/12/5 39/13/5
f 29/14/6 3/9/6 15/15/6 31/16/6
f 31/16/7 15/15/7 7/17/7 28/18/7
f 39/13/8 22/12/8 12/19/8 36/20/8
f 36/21/9 12/22/9 23/23/9 40/24/9
f 28/25/10 7/26/10 18/27/10 32/28/10
f 32/28/11 18/27/11 5/29/11 30/30/11
f 40/24/12 23/23/12 14/31/12 38/32/12
f 6/33/13 10/34/13 24/35/13 9/36/13
f 10/34/14 2/37/14 20/38/14 24/35/14
f 24/35/15 20/38/15 4/39/15 17/40/15
f 9/36/16 24/35/16 17/40/16 8/41/16
f 35/42/17 11/43/17 25/44/17 41/45/17
f 27/46/18 1/1/18 16/4/18 33/47/18
f 33/47/19 16/4/19 3/9/19 29/14/19
f 41/45/20 25/44/20 13/11/20 37/10/20
f 38/32/21 14/31/21 26/48/21 42/49/21
f 30/30/22 5/29/22 19/50/22 34/51/22
f 34/51/23 19/50/23 1/1/23 27/46/23
f 42/49/24 26/48/24 11/43/24 35/42/24
f 26/48/25 34/51/25 27/46/25 11/43/25
f 14/31/26 30/30/26 34/51/26 26/48/26
f 25/44/27 33/47/27 29/14/27 13/11/27
f 11/43/28 27/46/28 33/47/28 25/44/28
f 23/23/29 32/28/29 30/30/29 14/31/29
f 12/22/30 28/25/30 32/28/30 23/23/30
f 22/12/31 31/16/31 28/18/31 12/19/31
f 13/11/32 29/14/32 31/16/32 22/12/32
f 10/52/33 42/49/33 35/42/33 2/37/33
f 6/53/34 38/32/34 42/49/34 10/52/34
f 20/38/35 41/45/35 37/10/35 4/39/35
f 2/37/36 35/42/36 41/45/36 20/38/36
f 9/54/37 40/24/37 38/32/37 6/53/37
f 8/55/38 36/21/38 40/24/38 9/54/38
f 17/56/39 39/13/39 36/20/39 8/57/39
f 4/39/40 37/10/40 39/13/40 17/56/40
